# xmcd
#
# Track frame offsets:
#   150
#   13551
#   28396
#   45631
#   61325
#   76730
#   89888
#   100611
#   119270
#   132609
#   144993
#   160676
#   175068
#   192203
#   208642
#   221398
#   235736
#
# Disc length: 3336 seconds
#
# Revision: 0
# Processed by: cddbd v1.5.1PL0 Copyright (c) Steve Scherf et al.
# Submitted via: Media_Universe 3.0
#
DISCID=e40d0611
DTITLE=Adam Harvey - Sugar Talk
DYEAR=1900
DGENRE=Country
TTITLE0=He Lives My Dream
TTITLE1=Gypsy Queen
TTITLE2=I Blame You
TTITLE3=Hold On To My Heart
TTITLE4=Goodnight Sweetheart
TTITLE5=Treat Me Like A Dog
TTITLE6=Sugar Talk
TTITLE7=I Never Go Around Mirrors
TTITLE8=I Can Tell By The Way You Dance
TTITLE9=Caroline
TTITLE10=When You Love Somebody
TTITLE11=Love Letters
TTITLE12=It's Still Love
TTITLE13=Don't Tell Me (You're Not In Love)
TTITLE14=Jack's House
TTITLE15=Been There Done That
TTITLE16=The Kodoka Anthem (Battle For Australia)
EXTD=
EXTT0=
EXTT1=
EXTT2=
EXTT3=
EXTT4=
EXTT5=
EXTT6=
EXTT7=
EXTT8=
EXTT9=
EXTT10=
EXTT11=
EXTT12=
EXTT13=
EXTT14=
EXTT15=
EXTT16=
PLAYORDER=
